<svg width="32" height="32" viewBox="0 0 32 32" fill="none" xmlns="http://www.w3.org/2000/svg">
<path d="M16.0001 2.66675C12.5067 2.66675 9.66675 5.50675 9.66675 9.00008C9.66675 12.4267 12.3467 15.2001 15.8401 15.3201C15.9467 15.3067 16.0534 15.3067 16.1334 15.3201C16.1601 15.3201 16.1734 15.3201 16.2001 15.3201C16.2134 15.3201 16.2134 15.3201 16.2267 15.3201C19.6401 15.2001 22.3201 12.4267 22.3334 9.00008C22.3334 5.50675 19.4934 2.66675 16.0001 2.66675Z" fill="#A20030"/>
<path opacity="0.4" d="M22.7733 18.8666C19.0533 16.3866 12.9866 16.3866 9.23995 18.8666C7.54661 19.9999 6.61328 21.5333 6.61328 23.1733C6.61328 24.8133 7.54661 26.3333 9.22661 27.4533C11.0933 28.7066 13.5466 29.3333 15.9999 29.3333C18.4533 29.3333 20.9066 28.7066 22.7733 27.4533C24.4533 26.3199 25.3866 24.7999 25.3866 23.1466C25.3733 21.5066 24.4533 19.9866 22.7733 18.8666Z" fill="#A20030"/>
<path d="M18.6666 22.1733H16.9999V20.5066C16.9999 19.9599 16.5466 19.5066 15.9999 19.5066C15.4533 19.5066 14.9999 19.9599 14.9999 20.5066V22.1733H13.3333C12.7866 22.1733 12.3333 22.6266 12.3333 23.1733C12.3333 23.7199 12.7866 24.1733 13.3333 24.1733H14.9999V25.8399C14.9999 26.3866 15.4533 26.8399 15.9999 26.8399C16.5466 26.8399 16.9999 26.3866 16.9999 25.8399V24.1733H18.6666C19.2133 24.1733 19.6666 23.7199 19.6666 23.1733C19.6666 22.6266 19.2133 22.1733 18.6666 22.1733Z" fill="#A20030"/>
</svg>
