<svg width="100" height="100" viewBox="0 0 100 100" fill="none" xmlns="http://www.w3.org/2000/svg">
<path d="M79.1667 16.6667H74.5833C73.6163 11.9642 71.0576 7.73894 67.3385 4.70299C63.6195 1.66704 58.9675 0.00606052 54.1667 0L45.8333 0C41.0325 0.00606052 36.3805 1.66704 32.6615 4.70299C28.9424 7.73894 26.3837 11.9642 25.4167 16.6667H20.8333C15.31 16.6733 10.0148 18.8703 6.10925 22.7759C2.20367 26.6815 0.00661607 31.9767 0 37.5L0 50H100V37.5C99.9934 31.9767 97.7963 26.6815 93.8907 22.7759C89.9852 18.8703 84.69 16.6733 79.1667 16.6667ZM34.1 16.6667C34.9587 14.2379 36.5468 12.1337 38.6471 10.642C40.7474 9.15035 43.2572 8.34401 45.8333 8.33333H54.1667C56.7427 8.34401 59.2526 9.15035 61.3529 10.642C63.4532 12.1337 65.0413 14.2379 65.9 16.6667H34.1Z" fill="#A20030"/>
<path d="M54.1667 62.5002C54.1667 63.6052 53.7277 64.665 52.9463 65.4464C52.1649 66.2278 51.1051 66.6668 50 66.6668C48.8949 66.6668 47.8351 66.2278 47.0537 65.4464C46.2723 64.665 45.8333 63.6052 45.8333 62.5002V58.3335H0V79.1668C0.00661607 84.6901 2.20367 89.9853 6.10925 93.8909C10.0148 97.7965 15.31 99.9935 20.8333 100H79.1667C84.69 99.9935 89.9852 97.7965 93.8907 93.8909C97.7963 89.9853 99.9934 84.6901 100 79.1668V58.3335H54.1667V62.5002Z" fill="#A20030"/>
</svg>
