<svg width="25" height="24" viewBox="0 0 25 24" fill="none" xmlns="http://www.w3.org/2000/svg">
<path d="M7.74351 22H18.2235C20.9835 22 22.0835 20.31 22.2135 18.25L22.7335 9.99C22.8735 7.83 21.1535 6 18.9835 6C18.3735 6 17.8135 5.65 17.5335 5.11L16.8135 3.66C16.3535 2.75 15.1535 2 14.1335 2H11.8435C10.8135 2 9.6135 2.75 9.1535 3.66L8.4335 5.11C8.1535 5.65 7.59351 6 6.98351 6C4.8135 6 3.0935 7.83 3.2335 9.99L3.7535 18.25C3.8735 20.31 4.98351 22 7.74351 22Z" stroke="#292D32" stroke-width="1.5" stroke-linecap="round" stroke-linejoin="round"/>
<path d="M11.4835 8H14.4835" stroke="#292D32" stroke-width="1.5" stroke-linecap="round" stroke-linejoin="round"/>
<path d="M12.9835 18C14.7735 18 16.2335 16.54 16.2335 14.75C16.2335 12.96 14.7735 11.5 12.9835 11.5C11.1935 11.5 9.73352 12.96 9.73352 14.75C9.73352 16.54 11.1935 18 12.9835 18Z" stroke="#292D32" stroke-width="1.5" stroke-linecap="round" stroke-linejoin="round"/>
</svg>
