<svg width="32" height="32" viewBox="0 0 32 32" fill="none" xmlns="http://www.w3.org/2000/svg">
<path opacity="0.4" d="M25.3337 13.7067V23.2401C25.2937 27.0401 24.2536 28.0001 20.2936 28.0001H7.70703C3.68036 28.0001 2.66699 27.0001 2.66699 23.0267V13.7067C2.66699 10.1067 3.50699 8.94673 6.66699 8.76007C6.98699 8.74673 7.3337 8.7334 7.70703 8.7334H20.2936C24.3203 8.7334 25.3337 9.7334 25.3337 13.7067Z" fill="#A20030"/>
<path d="M29.3337 8.97333V18.2933C29.3337 21.8933 28.4937 23.0533 25.3337 23.24V13.7067C25.3337 9.73333 24.3203 8.73333 20.2936 8.73333H7.70703C7.3337 8.73333 6.98699 8.74667 6.66699 8.76C6.70699 4.96 7.74703 4 11.707 4H24.2936C28.3203 4 29.3337 5 29.3337 8.97333Z" fill="#A20030"/>
<path d="M9.2797 24.7471H6.98633C6.43966 24.7471 5.98633 24.2937 5.98633 23.7471C5.98633 23.2004 6.43966 22.7471 6.98633 22.7471H9.2797C9.82637 22.7471 10.2797 23.2004 10.2797 23.7471C10.2797 24.2937 9.8397 24.7471 9.2797 24.7471Z" fill="#A20030"/>
<path d="M16.7332 24.7471H12.1465C11.5998 24.7471 11.1465 24.2937 11.1465 23.7471C11.1465 23.2004 11.5998 22.7471 12.1465 22.7471H16.7332C17.2798 22.7471 17.7332 23.2004 17.7332 23.7471C17.7332 24.2937 17.2932 24.7471 16.7332 24.7471Z" fill="#A20030"/>
<path d="M25.3337 15.8135H2.66699V17.8135H25.3337V15.8135Z" fill="#A20030"/>
</svg>
