<svg width="100" height="100" viewBox="0 0 100 100" fill="none" xmlns="http://www.w3.org/2000/svg">
<path d="M37.5 0H62.5C62.5 6.89167 56.8917 12.5 50 12.5C43.1083 12.5 37.5 6.89167 37.5 0ZM86.7292 4.97917C81.6208 2.23333 76.275 0.683333 70.8125 0.2125C70.6958 11.6 61.4167 20.8333 50 20.8333C38.5833 20.8333 29.3042 11.6 29.1875 0.2125C23.725 0.683333 18.3792 2.2375 13.2708 4.97917C5.0875 9.375 0 18.0625 0 27.65V37.6C0 44.5042 5.59583 50.1 12.5 50.1V37.5C12.5 35.2 14.3667 33.3333 16.6667 33.3333C18.9667 33.3333 20.8333 35.2 20.8333 37.5V83.3333C20.8333 92.5375 28.2958 100 37.5 100H62.5C71.7042 100 79.1667 92.5375 79.1667 83.3333V37.5C79.1667 35.2 81.0333 33.3333 83.3333 33.3333C85.6333 33.3333 87.5 35.2 87.5 37.5V50C94.4042 50 100 44.4042 100 37.5V27.65C100 18.0625 94.9125 9.37083 86.7292 4.97917Z" fill="#A20030"/>
</svg>
