<svg width="32" height="32" viewBox="0 0 32 32" fill="none" xmlns="http://www.w3.org/2000/svg">
<path opacity="0.4" d="M28 29.3335H4C3.45333 29.3335 3 28.8802 3 28.3335C3 27.7868 3.45333 27.3335 4 27.3335H28C28.5467 27.3335 29 27.7868 29 28.3335C29 28.8802 28.5467 29.3335 28 29.3335Z" fill="#A20030"/>
<path opacity="0.4" d="M25.36 4.63988C22.7734 2.05322 20.24 1.98655 17.5867 4.63988L15.9734 6.25322C15.84 6.38655 15.7867 6.59988 15.84 6.78655C16.8534 10.3199 19.68 13.1466 23.2134 14.1599C23.2667 14.1732 23.32 14.1866 23.3734 14.1866C23.52 14.1866 23.6534 14.1332 23.76 14.0266L25.36 12.4132C26.68 11.1066 27.32 9.83988 27.32 8.55988C27.3334 7.23988 26.6934 5.95988 25.36 4.63988Z" fill="#A20030"/>
<path d="M20.8133 15.3736C20.4267 15.1869 20.0534 15.0002 19.6934 14.7869C19.4 14.6136 19.12 14.4269 18.84 14.2269C18.6134 14.0802 18.3467 13.8669 18.0933 13.6536C18.0667 13.6402 17.9733 13.5602 17.8667 13.4536C17.4267 13.0802 16.9334 12.6002 16.4934 12.0669C16.4534 12.0402 16.3867 11.9469 16.2934 11.8269C16.16 11.6669 15.9334 11.4002 15.7334 11.0936C15.5734 10.8936 15.3867 10.6002 15.2134 10.3069C15 9.94689 14.8134 9.58689 14.6267 9.21356C14.44 8.81356 14.2934 8.42689 14.16 8.06689L5.78668 16.4402C5.61335 16.6136 5.45335 16.9469 5.41335 17.1736L4.69335 22.2802C4.56002 23.1869 4.81335 24.0402 5.37335 24.6136C5.85335 25.0802 6.52002 25.3336 7.24002 25.3336C7.40002 25.3336 7.56002 25.3202 7.72002 25.2936L12.84 24.5736C13.08 24.5336 13.4134 24.3736 13.5734 24.2002L21.9467 15.8269C21.5733 15.6936 21.2134 15.5469 20.8133 15.3736Z" fill="#A20030"/>
</svg>
