<svg width="100" height="80" viewBox="0 0 100 80" fill="none" xmlns="http://www.w3.org/2000/svg">
<path d="M92.0872 10.9746C88.3553 4.34023 81.721 0.608398 74.2571 0.608398H24.9135C17.4499 0.608398 10.8153 4.34023 7.08345 10.9746C2.52231 19.2676 0.0344238 28.39 0.0344238 37.927C0.0344238 60.7328 9.15669 79.3922 20.767 79.3922C26.9868 79.3922 31.9627 73.5871 35.6946 61.5621C36.1092 59.9035 37.7678 58.6596 39.8411 58.6596H60.159C61.8176 58.6596 63.4762 59.9035 64.3055 61.5621C68.0374 73.5871 73.0131 79.3922 79.2331 79.3922C90.8434 79.3922 99.9657 60.7328 99.9657 37.927C99.1364 28.3898 96.6485 19.2676 92.0872 10.9746ZM37.3532 33.7805H33.2067V37.927C33.2067 40.4148 31.5481 42.0734 29.0602 42.0734C26.5723 42.0734 24.9137 40.4148 24.9137 37.927V33.7805H20.7672C18.2793 33.7805 16.6208 32.1219 16.6208 29.634C16.6208 27.1461 18.2793 25.4875 20.7672 25.4875H24.9137V21.341C24.9137 18.8531 26.5723 17.1945 29.0602 17.1945C31.5481 17.1945 33.2067 18.8531 33.2067 21.341V25.4875H37.3532C39.8411 25.4875 41.4997 27.1461 41.4997 29.634C41.4997 32.1219 39.8411 33.7805 37.3532 33.7805ZM64.7202 42.0734C61.403 42.0734 58.5004 39.1709 58.5004 35.8537C58.5004 32.5365 61.403 29.634 64.7202 29.634C68.0374 29.634 70.9399 32.5365 70.9399 35.8537C70.9399 39.1709 67.6227 42.0734 64.7202 42.0734ZM76.7452 29.634C73.8426 29.634 70.5254 26.7314 70.5254 23.4143C70.5254 20.0971 73.8426 17.1945 76.7452 17.1945C79.6477 17.1945 82.9649 20.0971 82.9649 23.4143C82.9649 26.7314 80.0624 29.634 76.7452 29.634Z" fill="#A20030"/>
</svg>
