<svg width="100" height="100" viewBox="0 0 100 100" fill="none" xmlns="http://www.w3.org/2000/svg">
<path d="M96.3375 29.6749L86.2792 19.6124L94.6125 11.2791L88.7209 5.3874L80.3875 13.7207L70.3292 3.6624C69.1684 2.50145 67.7903 1.58051 66.2736 0.952197C64.7569 0.32388 63.1313 0.000488281 61.4896 0.000488281C59.8479 0.000488281 58.2223 0.32388 56.7056 0.952197C55.1889 1.58051 53.8108 2.50145 52.65 3.6624L40.8667 15.4457L59.7625 34.3457L34.3459 59.7624L15.4459 40.8666L3.66252 52.6499C1.31913 54.994 0.00268555 58.1728 0.00268555 61.4874C0.00268555 64.8019 1.31913 67.9808 3.66252 70.3249L13.7209 80.3874L5.38752 88.7207L11.2792 94.6124L19.6125 86.2791L29.6709 96.3374C30.8316 97.4984 32.2097 98.4193 33.7264 99.0476C35.2431 99.6759 36.8687 99.9993 38.5104 99.9993C40.1521 99.9993 41.7778 99.6759 43.2945 99.0476C44.8112 98.4193 46.1893 97.4984 47.35 96.3374L59.1334 84.5541L40.2375 65.6541L65.6542 40.2374L84.55 59.1332L96.3334 47.3499C98.6768 45.0058 99.9932 41.827 99.9932 38.5124C99.9932 35.1978 98.6809 32.019 96.3375 29.6749Z" fill="#A20030"/>
</svg>
