<svg width="100" height="100" viewBox="0 0 100 100" fill="none" xmlns="http://www.w3.org/2000/svg">
<g clip-path="url(#clip0_71_15852)">
<path d="M25 0C11.2125 0 0 11.2125 0 25C0 38.7875 11.2125 50 25 50C38.7875 50 50 38.7875 50 25C50 11.2125 38.7875 0 25 0ZM36.5667 36.9583C34.7125 32.3958 30.2583 29.1667 25.0333 29.1667H24.9667C19.7417 29.1667 15.2792 32.3875 13.4292 36.95C10.3 33.9167 8.3375 29.6917 8.3375 25C8.3375 15.8083 15.8125 8.33333 25.0042 8.33333C34.1958 8.33333 41.6708 15.8083 41.6708 25C41.6708 29.6958 39.7042 33.925 36.5708 36.9583H36.5667ZM31.25 18.75C31.25 22.2 28.45 25 25 25C21.55 25 18.75 22.2 18.75 18.75C18.75 15.3 21.55 12.5 25 12.5C28.45 12.5 31.25 15.3 31.25 18.75ZM75 50C61.2125 50 50 61.2125 50 75C50 88.7875 61.2125 100 75 100C88.7875 100 100 88.7875 100 75C100 61.2125 88.7875 50 75 50ZM86.5667 86.9583C84.7125 82.3958 80.2583 79.1667 75.0333 79.1667H74.9667C69.7417 79.1667 65.2792 82.3875 63.4292 86.95C60.3 83.9167 58.3375 79.6917 58.3375 75C58.3375 65.8083 65.8125 58.3333 75.0042 58.3333C84.1958 58.3333 91.6708 65.8083 91.6708 75C91.6708 79.6958 89.7042 83.925 86.5708 86.9583H86.5667ZM81.25 68.75C81.25 72.2 78.45 75 75 75C71.55 75 68.75 72.2 68.75 68.75C68.75 65.3 71.55 62.5 75 62.5C78.45 62.5 81.25 65.3 81.25 68.75ZM58.3333 16.6667C58.3333 14.3667 60.1958 12.5 62.5 12.5H70.8333C80.025 12.5 87.5 19.975 87.5 29.1667V37.5C87.5 39.8 85.6375 41.6667 83.3333 41.6667C81.0292 41.6667 79.1667 39.8 79.1667 37.5V29.1667C79.1667 24.5708 75.4292 20.8333 70.8333 20.8333H62.5C60.1958 20.8333 58.3333 18.9667 58.3333 16.6667ZM41.6667 83.3333C41.6667 85.6333 39.8042 87.5 37.5 87.5H29.1667C19.975 87.5 12.5 80.025 12.5 70.8333V62.5C12.5 60.2 14.3625 58.3333 16.6667 58.3333C18.9708 58.3333 20.8333 60.2 20.8333 62.5V70.8333C20.8333 75.4292 24.5708 79.1667 29.1667 79.1667H37.5C39.8042 79.1667 41.6667 81.0333 41.6667 83.3333Z" fill="#A20030"/>
</g>
<defs>
<clipPath id="clip0_71_15852">
<rect width="100" height="100" fill="white"/>
</clipPath>
</defs>
</svg>
