<svg width="25" height="25" viewBox="0 0 25 25" fill="none" xmlns="http://www.w3.org/2000/svg">
<path d="M6.5 10.8301V8.83008C6.5 5.52008 7.5 2.83008 12.5 2.83008C17.5 2.83008 18.5 5.52008 18.5 8.83008V10.8301" stroke="#292D32" stroke-width="1.5" stroke-linecap="round" stroke-linejoin="round"/>
<path d="M12.5 19.3301C13.8807 19.3301 15 18.2108 15 16.8301C15 15.4494 13.8807 14.3301 12.5 14.3301C11.1193 14.3301 10 15.4494 10 16.8301C10 18.2108 11.1193 19.3301 12.5 19.3301Z" stroke="#292D32" stroke-width="1.5" stroke-linecap="round" stroke-linejoin="round"/>
<path d="M17.5 22.8301H7.5C3.5 22.8301 2.5 21.8301 2.5 17.8301V15.8301C2.5 11.8301 3.5 10.8301 7.5 10.8301H17.5C21.5 10.8301 22.5 11.8301 22.5 15.8301V17.8301C22.5 21.8301 21.5 22.8301 17.5 22.8301Z" stroke="#292D32" stroke-width="1.5" stroke-linecap="round" stroke-linejoin="round"/>
</svg>
