<svg width="37" height="36" viewBox="0 0 37 36" fill="none" xmlns="http://www.w3.org/2000/svg">
<path d="M25.7 3H21.8C17 3 14 6 14 10.8V16.875H23.375C23.99 16.875 24.5 17.385 24.5 18C24.5 18.615 23.99 19.125 23.375 19.125H14V25.2C14 30 17 33 21.8 33H25.685C30.485 33 33.485 30 33.485 25.2V10.8C33.5 6 30.5 3 25.7 3Z" fill="white"/>
<path d="M7.34016 16.8748L10.4452 13.7698C10.6702 13.5448 10.7752 13.2598 10.7752 12.9748C10.7752 12.6898 10.6702 12.3898 10.4452 12.1798C10.0102 11.7448 9.29016 11.7448 8.85516 12.1798L3.83016 17.2048C3.39516 17.6398 3.39516 18.3598 3.83016 18.7948L8.85516 23.8198C9.29016 24.2548 10.0102 24.2548 10.4452 23.8198C10.8802 23.3848 10.8802 22.6648 10.4452 22.2298L7.34016 19.1248H14.0002V16.8748H7.34016Z" fill="white"/>
</svg>
