<svg width="25" height="25" viewBox="0 0 25 25" fill="none" xmlns="http://www.w3.org/2000/svg">
<path d="M13.3755 10.6033C13.2123 10.5881 13.0485 10.5797 12.8846 10.5781C9.63411 10.5781 7.00049 13.2166 7.00049 16.4724C7.00049 17.4436 7.23936 18.3568 7.65449 19.1641C7.43803 18.507 7.32753 17.8197 7.32711 17.1279C7.32711 13.676 9.99374 10.8545 13.3755 10.6033ZM15.246 21.3005C14.6714 21.6854 14.0403 21.9784 13.3755 22.169C14.3041 22.0547 15.1928 21.7235 15.9697 21.2022C18.6709 19.3865 19.404 15.7648 17.6074 13.1105C17.5157 12.978 17.4185 12.8493 17.316 12.725C18.9761 15.6249 18.1091 19.3756 15.246 21.3005Z" fill="#A20030"/>
<path d="M17.542 10.5696V7.30787C17.542 7.17137 17.4674 7.05663 17.362 6.98538L21.046 1.375H13.9825L12.796 3.15475L11.6095 1.375H4.54602L8.22927 6.985C8.1239 7.05625 8.04927 7.17137 8.04927 7.30787V10.5696C6.3689 11.9451 5.29602 14.0343 5.29602 16.375C5.29602 20.5169 8.65415 23.875 12.796 23.875C13.0518 23.875 13.3038 23.8619 13.5528 23.8368C17.3391 23.4576 20.296 20.2619 20.296 16.375C20.296 14.0343 19.2224 11.9451 17.542 10.5696ZM16.1058 1.75H18.4788L15.169 6.71463L13.9825 4.93488L16.1058 1.75ZM16.3555 8.49438L16.7204 7.94763C16.7403 7.9945 16.7511 8.0455 16.7511 8.09912V9.68125C16.7508 9.73019 16.7408 9.77857 16.7217 9.82362C16.7026 9.86867 16.6747 9.9095 16.6398 9.94375C15.5148 9.2695 14.203 8.875 12.796 8.875C11.4412 8.87522 10.112 9.24485 8.95152 9.94413C8.88119 9.87461 8.84116 9.78013 8.84015 9.68125V8.09912C8.84015 8.0455 8.85177 7.99413 8.8709 7.94763L9.23577 8.49475L16.3555 8.49438ZM7.11327 1.75H9.48627L13.7328 8.11938H11.3598L7.11327 1.75ZM12.796 22.75C9.27515 22.75 6.42102 19.8959 6.42102 16.375C6.42102 12.8545 9.27515 10 12.796 10C16.3161 10 19.171 12.8545 19.171 16.375C19.171 19.8959 16.3161 22.75 12.796 22.75Z" fill="#A20030"/>
<path d="M13.6339 19.0776V12.25H12.1924C12.1925 12.3994 12.1631 12.5474 12.1059 12.6855C12.0488 12.8236 11.965 12.9491 11.8593 13.0548C11.7537 13.1604 11.6282 13.2443 11.4902 13.3015C11.3521 13.3587 11.2041 13.3881 11.0547 13.3881V14.8105C11.1574 14.8105 11.9341 14.752 12.1924 14.6485V19.0776H11.0547V20.5H14.7717V19.0776H13.6339Z" fill="#A20030"/>
</svg>
