<svg width="70" height="70" viewBox="0 0 70 70" fill="none" xmlns="http://www.w3.org/2000/svg">
<path d="M52.4416 31.4709V43.1375C52.4416 43.8959 52.4124 44.625 52.3249 45.325C51.6541 53.2 47.0166 57.1083 38.4708 57.1083H37.3041C36.5749 57.1083 35.8749 57.4583 35.4374 58.0416L31.9375 62.7083C30.3916 64.7792 27.8832 64.7792 26.3374 62.7083L22.8374 58.0416C22.4582 57.5458 21.6124 57.1083 20.9708 57.1083H19.8041C10.4999 57.1083 5.83325 54.8042 5.83325 43.1375V31.4709C5.83325 22.925 9.77078 18.2875 17.6166 17.6167C18.3166 17.5292 19.0458 17.5 19.8041 17.5H38.4708C47.7749 17.5 52.4416 22.1667 52.4416 31.4709Z" stroke="#A20030" stroke-width="3" stroke-miterlimit="10" stroke-linecap="round" stroke-linejoin="round"/>
<path d="M64.1084 19.8044V31.471C64.1084 40.046 60.1708 44.6544 52.325 45.3252C52.4125 44.6252 52.4417 43.896 52.4417 43.1377V31.471C52.4417 22.1669 47.775 17.5002 38.4708 17.5002H19.8042C19.0459 17.5002 18.3167 17.5294 17.6167 17.6169C18.2875 9.77102 22.925 5.8335 31.4709 5.8335H50.1375C59.4417 5.8335 64.1084 10.5002 64.1084 19.8044Z" stroke="#A20030" stroke-width="3" stroke-miterlimit="10" stroke-linecap="round" stroke-linejoin="round"/>
<path d="M39.362 38.6458H39.3882" stroke="#A20030" stroke-width="3" stroke-linecap="round" stroke-linejoin="round"/>
<path d="M29.1535 38.6458H29.1797" stroke="#A20030" stroke-width="3" stroke-linecap="round" stroke-linejoin="round"/>
<path d="M18.9452 38.6458H18.9715" stroke="#A20030" stroke-width="3" stroke-linecap="round" stroke-linejoin="round"/>
</svg>
