<svg width="100" height="100" viewBox="0 0 100 100" fill="none" xmlns="http://www.w3.org/2000/svg">
<path d="M67.7167 26.3917C61.5565 19.2823 58.2178 10.1604 58.3333 0.754169C67.1596 2.23705 75.4231 6.07154 82.2542 11.8542L67.7167 26.3917ZM32.3 61.8083L44.1083 50L11.8542 17.7458C4.1985 26.7487 -0.0035606 38.1822 2.26381e-06 50H1.34584C12.7313 50.1665 23.6912 54.3536 32.2875 61.8208L32.3 61.8083ZM88.1458 17.7458L73.6083 32.2833C80.7767 38.3426 89.8596 41.6669 99.2458 41.6667C97.763 32.8404 93.9285 24.5769 88.1458 17.7458ZM61.8208 32.2875C54.3545 23.6906 50.1676 12.7311 50 1.34584V2.26381e-06C38.1822 -0.0035606 26.7487 4.1985 17.7458 11.8542L50 44.1083L61.8208 32.2875ZM98.6542 50C87.2688 49.8328 76.3092 45.6458 67.7125 38.1792L55.8917 50L88.1458 82.2542C95.8015 73.2513 100.004 61.8178 100 50H98.6542ZM38.1792 67.7125C45.5132 76.3409 49.6832 87.2136 50 98.5333V100C61.8178 100.004 73.2513 95.8015 82.2542 88.1458L50 55.8917L38.1792 67.7125ZM32.275 73.6167L17.7458 88.1458C24.5769 93.9285 32.8404 97.763 41.6667 99.2458C41.6757 89.8592 38.3468 80.7751 32.275 73.6167ZM0.754169 58.3333C2.23705 67.1596 6.07154 75.4231 11.8542 82.2542L26.3917 67.7167C19.2379 61.6322 10.1454 58.3043 0.754169 58.3333Z" fill="#A20030"/>
</svg>
