<svg width="21" height="14" viewBox="0 0 21 14" fill="none" xmlns="http://www.w3.org/2000/svg">
<circle cx="1.5" cy="7" r="1.5" fill="#65676B"/>
<path d="M14.5 0.5C10.9101 0.5 8 3.41006 8 7C8 10.5899 10.9101 13.5 14.5 13.5C18.0899 13.5 21 10.5899 21 7C21 3.41006 18.0899 0.5 14.5 0.5ZM18.6935 6.14819V6.32982C18.6935 6.48367 18.6065 6.62441 18.4689 6.69308L18.0656 6.8949C18.0015 6.92696 17.9301 6.94149 17.8586 6.93703C17.7871 6.93256 17.7181 6.90926 17.6585 6.86948L17.1812 6.55129C17.1298 6.517 17.0711 6.4949 17.0098 6.48668C16.9485 6.47846 16.8861 6.48433 16.8274 6.50385L16.758 6.52692C16.5037 6.61157 16.3999 6.91456 16.5485 7.1376L16.8956 7.65812C16.9708 7.77109 17.0976 7.83897 17.2334 7.83897H17.4486C17.6729 7.83897 17.8548 8.02087 17.8548 8.24522V8.54244C17.8548 8.63024 17.8263 8.71595 17.7736 8.78619L17.2824 9.44091C17.2452 9.49071 17.2198 9.54837 17.2082 9.60944L17.0955 10.2078C17.0793 10.294 17.0355 10.3727 16.9708 10.4322C16.7224 10.6596 16.5024 10.9162 16.3155 11.1964L15.974 11.7088C15.9076 11.8085 15.8176 11.8902 15.7121 11.9467C15.6065 12.0032 15.4886 12.0328 15.3689 12.0328C15.0934 12.0328 14.8415 11.8771 14.7183 11.6307C14.5747 11.3435 14.5 11.0269 14.5 10.7058V9.92238C14.5 9.69802 14.3181 9.51613 14.0938 9.51613H13.4154C13.0357 9.51613 12.6716 9.36516 12.403 9.09677C12.1345 8.8282 11.9837 8.46403 11.9836 8.08429V7.71579C11.9836 7.26524 12.1959 6.84091 12.5563 6.57042L13.2792 6.02814C13.527 5.84227 13.8285 5.74175 14.1383 5.74167H14.1616C14.3839 5.74167 14.6033 5.79331 14.8019 5.8929L15.1877 6.08581C15.2842 6.13403 15.3956 6.1419 15.4978 6.10782L16.7378 5.6945C16.9037 5.63919 17.0156 5.48403 17.0156 5.30921C17.0156 5.08486 16.8337 4.90296 16.6094 4.90296H16.3449C16.2372 4.90296 16.1339 4.86024 16.0576 4.78397L15.8763 4.6026C15.8386 4.56487 15.7938 4.53494 15.7445 4.51452C15.6952 4.4941 15.6424 4.4836 15.589 4.48361H13.2288C13.0045 4.48361 12.8226 4.30171 12.8226 4.07736V3.96204C12.8226 3.77569 12.9494 3.61319 13.1303 3.56784L13.509 3.47323C13.607 3.44859 13.6925 3.38857 13.7486 3.30444L13.9603 2.98704C14.0356 2.87407 14.1624 2.80619 14.2982 2.80619H14.9327C15.1571 2.80619 15.339 2.62429 15.339 2.39994V1.83119C17.4153 2.16772 19.083 3.72431 19.5828 5.74194H19.0998C18.8754 5.74194 18.6935 5.92383 18.6935 6.14819Z" fill="#65676B"/>
</svg>
